<svg xmlns="http://www.w3.org/2000/svg" viewBox="0 0 64 64" width="64" height="64">
  <defs>
    <linearGradient id="gradient" x1="0%" y1="0%" x2="100%" y2="100%">
      <stop offset="0%" style="stop-color:#1877f2;stop-opacity:1" />
      <stop offset="100%" style="stop-color:#42a5f5;stop-opacity:1" />
    </linearGradient>
  </defs>
  
  <!-- Background circle -->
  <circle cx="32" cy="32" r="30" fill="url(#gradient)" stroke="#fff" stroke-width="2"/>
  
  <!-- Question mark -->
  <path d="M32 16c-6 0-10 4-10 9h4c0-3 2-5 6-5s6 2 6 5c0 3-2 4-4 6-2 2-2 3-2 5h4c0-1 0-2 2-4 2-2 4-3 4-7 0-5-4-9-10-9z" fill="white"/>
  <circle cx="32" cy="48" r="2.5" fill="white"/>
  
  <!-- Small accent dots -->
  <circle cx="20" cy="20" r="1.5" fill="rgba(255,255,255,0.6)"/>
  <circle cx="44" cy="20" r="1.5" fill="rgba(255,255,255,0.6)"/>
  <circle cx="20" cy="44" r="1.5" fill="rgba(255,255,255,0.6)"/>
</svg>